<mxfile host="65bd71144e">
    <diagram id="CGelFds4hoSm13RwAmmO" name="Page-1">
        <mxGraphModel dx="1493" dy="545" grid="1" gridSize="10" guides="1" tooltips="1" connect="1" arrows="1" fold="1" page="1" pageScale="1" pageWidth="827" pageHeight="1169" math="0" shadow="0">
            <root>
                <mxCell id="0"/>
                <mxCell id="1" parent="0"/>
                <mxCell id="2" value="&lt;b&gt;Utilisateur&lt;/b&gt;" style="swimlane;fontStyle=0;align=center;verticalAlign=top;childLayout=stackLayout;horizontal=1;startSize=40;horizontalStack=0;resizeParent=1;resizeParentMax=0;resizeLast=0;collapsible=0;marginBottom=0;html=1;" parent="1" vertex="1">
                    <mxGeometry x="-770" y="40" width="310" height="338" as="geometry"/>
                </mxCell>
                <mxCell id="3" value="attributes" style="text;html=1;strokeColor=none;fillColor=none;align=center;verticalAlign=middle;spacingLeft=4;spacingRight=4;overflow=hidden;rotatable=0;points=[[0,0.5],[1,0.5]];portConstraint=eastwest;" parent="2" vertex="1">
                    <mxGeometry y="40" width="310" height="20" as="geometry"/>
                </mxCell>
                <mxCell id="4" value="id" style="text;html=1;strokeColor=none;fillColor=none;align=left;verticalAlign=middle;spacingLeft=4;spacingRight=4;overflow=hidden;rotatable=0;points=[[0,0.5],[1,0.5]];portConstraint=eastwest;" parent="2" vertex="1">
                    <mxGeometry y="60" width="310" height="20" as="geometry"/>
                </mxCell>
                <mxCell id="6" value="pseudo" style="text;html=1;fillColor=none;align=left;verticalAlign=middle;spacingLeft=4;spacingRight=4;overflow=hidden;rotatable=0;points=[[0,0.5],[1,0.5]];portConstraint=eastwest;" parent="2" vertex="1">
                    <mxGeometry y="80" width="310" height="20" as="geometry"/>
                </mxCell>
                <mxCell id="31" value="localite" style="shape=partialRectangle;html=1;top=1;align=left;dashed=1;strokeColor=#f0f0f0;" vertex="1" parent="2">
                    <mxGeometry y="100" width="310" height="20" as="geometry"/>
                </mxCell>
                <mxCell id="10" value="mdp" style="shape=partialRectangle;html=1;top=1;align=left;dashed=1;strokeColor=#f0f0f0;" parent="2" vertex="1">
                    <mxGeometry y="120" width="310" height="20" as="geometry"/>
                </mxCell>
                <mxCell id="11" value="photoprofil" style="shape=partialRectangle;html=1;top=1;align=left;dashed=1;strokeColor=#f0f0f0;" parent="2" vertex="1">
                    <mxGeometry y="140" width="310" height="20" as="geometry"/>
                </mxCell>
                <mxCell id="12" value="nom" style="shape=partialRectangle;html=1;top=1;align=left;dashed=1;strokeColor=#f0f0f0;" parent="2" vertex="1">
                    <mxGeometry y="160" width="310" height="20" as="geometry"/>
                </mxCell>
                <mxCell id="13" value="prenom" style="shape=partialRectangle;html=1;top=1;align=left;dashed=1;strokeColor=#f0f0f0;" parent="2" vertex="1">
                    <mxGeometry y="180" width="310" height="20" as="geometry"/>
                </mxCell>
                <mxCell id="33" value="email" style="shape=partialRectangle;html=1;top=1;align=left;dashed=1;strokeColor=#f0f0f0;" vertex="1" parent="2">
                    <mxGeometry y="200" width="310" height="20" as="geometry"/>
                </mxCell>
                <mxCell id="32" value="bio" style="shape=partialRectangle;html=1;top=1;align=left;dashed=1;strokeColor=#f0f0f0;" vertex="1" parent="2">
                    <mxGeometry y="220" width="310" height="20" as="geometry"/>
                </mxCell>
                <mxCell id="7" value="" style="line;strokeWidth=1;fillColor=none;align=left;verticalAlign=middle;spacingTop=-1;spacingLeft=3;spacingRight=3;rotatable=0;labelPosition=right;points=[];portConstraint=eastwest;" parent="2" vertex="1">
                    <mxGeometry y="240" width="310" height="8" as="geometry"/>
                </mxCell>
                <mxCell id="8" value="operations" style="text;html=1;strokeColor=none;fillColor=none;align=center;verticalAlign=middle;spacingLeft=4;spacingRight=4;overflow=hidden;rotatable=0;points=[[0,0.5],[1,0.5]];portConstraint=eastwest;" parent="2" vertex="1">
                    <mxGeometry y="248" width="310" height="20" as="geometry"/>
                </mxCell>
                <mxCell id="9" value="fonction: verif_connexion(login, mdp)" style="text;html=1;strokeColor=none;fillColor=none;align=left;verticalAlign=middle;spacingLeft=4;spacingRight=4;overflow=hidden;rotatable=0;points=[[0,0.5],[1,0.5]];portConstraint=eastwest;" parent="2" vertex="1">
                    <mxGeometry y="268" width="310" height="20" as="geometry"/>
                </mxCell>
                <mxCell id="14" value="public function getUserInfo(id){&lt;br&gt;" style="shape=partialRectangle;html=1;top=1;align=left;dashed=1;strokeColor=#f0f0f0;" parent="2" vertex="1">
                    <mxGeometry y="288" width="310" height="20" as="geometry"/>
                </mxCell>
                <mxCell id="15" value="" style="shape=partialRectangle;html=1;top=1;align=left;dashed=1;strokeColor=#f0f0f0;" parent="2" vertex="1">
                    <mxGeometry y="308" width="310" height="30" as="geometry"/>
                </mxCell>
                <mxCell id="16" value="&lt;b&gt;Commentaire&lt;/b&gt;" style="swimlane;fontStyle=0;align=center;verticalAlign=top;childLayout=stackLayout;horizontal=1;startSize=55;horizontalStack=0;resizeParent=1;resizeParentMax=0;resizeLast=0;collapsible=0;marginBottom=0;html=1;strokeColor=#f0f0f0;" parent="1" vertex="1">
                    <mxGeometry x="-140" y="40" width="330" height="283" as="geometry"/>
                </mxCell>
                <mxCell id="17" value="attributes" style="text;html=1;strokeColor=none;fillColor=none;align=center;verticalAlign=middle;spacingLeft=4;spacingRight=4;overflow=hidden;rotatable=0;points=[[0,0.5],[1,0.5]];portConstraint=eastwest;" parent="16" vertex="1">
                    <mxGeometry y="55" width="330" height="20" as="geometry"/>
                </mxCell>
                <mxCell id="18" value="id" style="text;html=1;strokeColor=none;fillColor=none;align=left;verticalAlign=middle;spacingLeft=4;spacingRight=4;overflow=hidden;rotatable=0;points=[[0,0.5],[1,0.5]];portConstraint=eastwest;" parent="16" vertex="1">
                    <mxGeometry y="75" width="330" height="20" as="geometry"/>
                </mxCell>
                <mxCell id="25" value="date" style="shape=partialRectangle;html=1;top=1;align=left;dashed=1;strokeColor=#f0f0f0;" parent="16" vertex="1">
                    <mxGeometry y="95" width="330" height="20" as="geometry"/>
                </mxCell>
                <mxCell id="20" value="auteur" style="text;html=1;strokeColor=none;fillColor=none;align=left;verticalAlign=middle;spacingLeft=4;spacingRight=4;overflow=hidden;rotatable=0;points=[[0,0.5],[1,0.5]];portConstraint=eastwest;" parent="16" vertex="1">
                    <mxGeometry y="115" width="330" height="20" as="geometry"/>
                </mxCell>
                <mxCell id="26" value="contenu" style="shape=partialRectangle;html=1;top=1;align=left;dashed=1;strokeColor=#f0f0f0;" parent="16" vertex="1">
                    <mxGeometry y="135" width="330" height="20" as="geometry"/>
                </mxCell>
                <mxCell id="27" value="lieu" style="shape=partialRectangle;html=1;top=1;align=left;dashed=1;strokeColor=#f0f0f0;" parent="16" vertex="1">
                    <mxGeometry y="155" width="330" height="20" as="geometry"/>
                </mxCell>
                <mxCell id="21" value="" style="line;strokeWidth=1;fillColor=none;align=left;verticalAlign=middle;spacingTop=-1;spacingLeft=3;spacingRight=3;rotatable=0;labelPosition=right;points=[];portConstraint=eastwest;" parent="16" vertex="1">
                    <mxGeometry y="175" width="330" height="8" as="geometry"/>
                </mxCell>
                <mxCell id="22" value="operations" style="text;html=1;strokeColor=none;fillColor=none;align=center;verticalAlign=middle;spacingLeft=4;spacingRight=4;overflow=hidden;rotatable=0;points=[[0,0.5],[1,0.5]];portConstraint=eastwest;" parent="16" vertex="1">
                    <mxGeometry y="183" width="330" height="20" as="geometry"/>
                </mxCell>
                <mxCell id="28" value="insert_commentaire(date,contenu,lieu,auteur,contenu)" style="shape=partialRectangle;html=1;top=1;align=left;dashed=1;strokeColor=#f0f0f0;" parent="16" vertex="1">
                    <mxGeometry y="203" width="330" height="20" as="geometry"/>
                </mxCell>
                <mxCell id="23" value="get_commentaire_lieu(lieu)" style="text;html=1;strokeColor=none;fillColor=none;align=left;verticalAlign=middle;spacingLeft=4;spacingRight=4;overflow=hidden;rotatable=0;points=[[0,0.5],[1,0.5]];portConstraint=eastwest;" parent="16" vertex="1">
                    <mxGeometry y="223" width="330" height="20" as="geometry"/>
                </mxCell>
                <mxCell id="29" value="update_commentaire(id,&amp;nbsp;date,contenu,lieu,auteur,contenu&lt;br&gt;)" style="shape=partialRectangle;html=1;top=1;align=left;dashed=1;strokeColor=#f0f0f0;" parent="16" vertex="1">
                    <mxGeometry y="243" width="330" height="20" as="geometry"/>
                </mxCell>
                <mxCell id="30" value="delete_commentaire(id)" style="shape=partialRectangle;html=1;top=1;align=left;dashed=1;strokeColor=#f0f0f0;" parent="16" vertex="1">
                    <mxGeometry y="263" width="330" height="20" as="geometry"/>
                </mxCell>
            </root>
        </mxGraphModel>
    </diagram>
</mxfile>